<?xml version="1.0" encoding="utf-8"?>
<!-- Generator: Adobe Illustrator 20.0.0, SVG Export Plug-In . SVG Version: 6.00 Build 0)  -->
<svg version="1.1" id="logo" xmlns="http://www.w3.org/2000/svg" xmlns:xlink="http://www.w3.org/1999/xlink" x="0px"
  y="0px" viewBox="0 0 175.8 87.9" xml:space="preserve">
  <style type="text/css">
    .st0 {
      fill: #0088f5;
    }
  </style>
  <path class="st0" d="M48.6,81.4l-4.3,4.3c-0.5,0.5-1.1,0.8-1.8,0.8s-1.4-0.3-2-0.8L0.9,46C0.3,45.4,0,44.7,0,44s0.3-1.4,0.9-2
  L40.5,2.4c0.5-0.6,1.2-0.9,2-0.9s1.4,0.3,1.8,0.9l4.3,4.3c0.6,0.5,0.9,1.2,0.9,2s-0.3,1.4-0.9,1.8L15.2,44l33.4,33.4
  c0.6,0.6,0.9,1.3,0.9,2C49.5,80.1,49.2,80.8,48.6,81.4z" />
  <path class="st0" d="M113.7,3.7L78,86.4c-0.2,0.5-0.7,1-1.5,1.3S75,88,74.3,87.8l-5.8-1c-0.9-0.2-1.5-0.6-1.9-1
  c-0.3-0.5-0.5-1-0.3-1.6L102,1.7c0.3-0.6,0.9-1,1.5-1.3c0.7-0.2,1.4-0.3,2.2-0.2l6,1.1c0.8,0.2,1.4,0.5,1.9,1
  C114,2.7,114.1,3.2,113.7,3.7z" />
  <path class="st0" d="M173.4,46l-39.6,39.6c-0.6,0.5-1.3,0.8-2,0.8s-1.4-0.3-2-0.8l-4.3-4.3c-0.5-0.6-0.8-1.3-0.8-2s0.3-1.4,0.8-2
  L158.9,44l-33.4-33.5c-0.5-0.5-0.8-1.1-0.8-1.8s0.3-1.4,0.8-2l4.3-4.3c0.6-0.6,1.3-0.9,2-0.9s1.4,0.3,2,0.9L173.4,42
  c0.5,0.5,0.8,1.2,0.8,2S173.9,45.5,173.4,46z" />
</svg>
